<svg xmlns="http://www.w3.org/2000/svg" width="512" height="512"><path d="m40.373 58.353 2.195-.027c2.384-.021 4.766-.007 7.15.01 1.663-.003 3.326-.008 4.988-.015 3.48-.007 6.96.004 10.44.027 4.456.029 8.91.012 13.366-.018 3.432-.018 6.863-.012 10.295 0 1.642.004 3.285 0 4.927-.011 2.299-.013 4.595.006 6.893.034l3.958.012c4.337.806 5.748 2.173 8.415 5.635 1.144 2.613 1.144 2.613 1.881 5.438l.87 3.23.878 3.473.959 3.623c.837 3.18 1.66 6.362 2.476 9.548.818 3.18 1.659 6.356 2.497 9.532 2.625 10.006 5.19 20.02 7.548 30.093l.555 2.361L132 137l2.199-.003a154180.984 154180.984 0 0 1 144.444-.162l3.113-.002a57290.2 57290.2 0 0 0 49.922-.064c17.07-.028 34.14-.045 51.21-.051 10.537-.004 21.073-.017 31.61-.042 7.22-.016 14.442-.02 21.663-.017 4.17.002 8.338 0 12.507-.017 3.816-.014 7.631-.015 11.447-.005 1.381.002 2.762-.002 4.143-.012 1.877-.012 3.754-.003 5.631.006l3.16-.004c4.701.594 7.989 2.17 10.951 5.873 2.832 9.91-3.269 23.485-5.89 33.254l-1.494 5.608a11434.04 11434.04 0 0 1-4.029 15.074c-1.403 5.241-2.803 10.484-4.203 15.726-1.727 6.466-3.455 12.931-5.186 19.396a16910.126 16910.126 0 0 0-10.08 37.83c-1.772 6.682-3.55 13.363-5.33 20.044a7342.91 7342.91 0 0 0-3.585 13.507c-1.112 4.206-2.23 8.409-3.355 12.61-.409 1.532-.815 3.065-1.218 4.598-.548 2.085-1.106 4.168-1.667 6.25l-.935 3.521c-1.255 3.762-2.37 7.068-5.862 9.204-2.33.945-3.95 1.132-6.453 1.14l-2.59.022-2.83-.006c-1.493.01-1.493.01-3.017.018-3.345.017-6.69.02-10.037.023l-7.184.03c-5.833.025-11.667.04-17.5.052-6.788.013-13.576.038-20.363.064-12.105.045-24.21.082-36.315.113-11.758.03-23.517.065-35.276.105l-2.196.007-10.908.037c-30.166.104-60.331.193-90.497.273l.734 2.706c.898 3.315 1.792 6.63 2.684 9.947.387 1.435.775 2.87 1.164 4.303.56 2.062 1.114 4.125 1.668 6.189l1.016 3.76C194 371 194 371 194 374l3.155-.011c25.357-.089 50.713-.155 76.07-.196 12.262-.02 24.525-.049 36.787-.095 10.69-.04 21.38-.065 32.07-.074 5.659-.006 11.317-.018 16.975-.047 5.331-.027 10.662-.035 15.993-.03 1.951 0 3.903-.008 5.854-.024 14.528-.109 26.086.94 37.096 11.477 8.56 9.363 11.527 19.564 11.273 32.04-.768 11.126-5.372 19.338-13.34 26.929-9.873 8.337-20.395 10.178-32.956 9.259-10.82-1.246-19.617-7.683-26.368-15.935-5.318-7.578-7.058-14.794-7.172-23.918l-.044-2.349c.12-6.862 1.824-10.067 4.607-17.026l-113 1 3 8c2.31 9.867 1.354 20.445-3.29 29.52-1.454 2.284-3 4.38-4.71 6.48l-1.523 1.898c-5.963 6.661-15.365 11.785-24.32 12.34-13.135.318-22.623-1.225-32.93-10.027-8.142-8.084-12.31-17.985-12.477-29.398.09-8.807 2.03-15.694 7.066-22.926 2.295-3.658 3.332-5.878 2.688-10.277-.34-1.324-.697-2.644-1.067-3.96l-.584-2.217c-.65-2.453-1.322-4.9-1.994-7.347-.47-1.76-.94-3.519-1.407-5.28a2638.506 2638.506 0 0 0-3.07-11.407 4636.672 4636.672 0 0 1-4.925-18.335c-1.72-6.44-3.442-12.88-5.17-19.318a7871.88 7871.88 0 0 1-11.834-44.613l-.808-3.082c-1.345-5.132-2.69-10.264-4.033-15.397-2.694-10.287-5.395-20.572-8.096-30.857l-.81-3.082a62939.74 62939.74 0 0 0-21.232-80.587 203554.28 203554.28 0 0 1-4.224-16C101.81 106.091 98.39 93.05 95 80l-2.289-.025c-7.121-.077-14.243-.165-21.364-.263-3.661-.05-7.322-.096-10.983-.134a2339.07 2339.07 0 0 1-10.601-.136 1214.22 1214.22 0 0 0-6.01-.063l-3.7-.06-3.256-.04c-2.819-.281-4.45-.725-6.797-2.279-2.291-3.398-3-5.447-3-9.562 2.105-7.236 6.18-9.063 13.373-9.085ZM138 158c.732 6.305.732 6.305 2.013 12.364l.606 2.325.66 2.466c.23.883.462 1.765.7 2.674.767 2.917 1.54 5.83 2.314 8.745l1.632 6.199c1.45 5.506 2.905 11.01 4.363 16.514 1.496 5.656 2.988 11.314 4.48 16.973 2.342 8.884 4.689 17.768 7.038 26.651 2.498 9.449 4.988 18.9 7.47 28.353l3.416 12.986 1.733 6.598c.774 2.949 1.551 5.896 2.329 8.843l.662 2.53c1.024 3.986 1.024 3.986 2.584 7.779h237c2.37-6.195 2.37-6.195 4.292-12.446l.64-2.381.665-2.527.732-2.739c.796-2.984 1.587-5.969 2.378-8.954l1.69-6.342c1.501-5.627 2.997-11.256 4.492-16.885 1.536-5.78 3.076-11.56 4.616-17.338l1.837-6.894.913-3.425 2.72-10.213c3.29-12.363 6.592-24.723 9.923-37.075l1.03-3.818a19165.93 19165.93 0 0 1 5.24-19.379c.46-1.707.923-3.415 1.387-5.121 1.009-3.188 1.009-3.188 1.445-6.463H138Zm53.687 241.313c-4.428 4.428-5.862 7.926-6.125 14.125.19 6.043 1.6 9.573 5.829 14.027 3.832 3.479 7.522 5.49 12.742 5.566 6.172-.418 11.212-2.012 15.375-6.746 4.116-5.562 5.294-10.401 4.492-17.285-1.703-5.277-4.216-9.065-9-12-8.537-3.936-15.729-3.55-23.313 2.313Zm184.5.062c-4.653 5.584-6.689 10.26-6.187 17.625 1.576 5.465 4.041 9.778 8.75 13.063 5.604 2.96 11.255 3.807 17.375 2 4.777-2.059 7.95-5.859 10.875-10.063 1.868-5.604 1.735-11.707-.063-17.312-4.247-5.892-8.67-9.317-15.937-10.688-5.938 0-10.261 1.532-14.813 5.375Z"/><path d="M367 194c2.753 1.223 4.428 2.153 6.12 4.656 1.224 3.261 1.142 6.122 1.155 9.604l.015 2.194c.014 2.389.013 4.778.01 7.167l.014 4.992c.007 3.486.007 6.972.002 10.458-.006 4.463.01 8.926.034 13.39.015 3.435.016 6.87.013 10.307 0 1.645.005 3.29.015 4.936.013 2.303.006 4.604-.006 6.907l.002 3.967c-.401 3.673-1.12 5.526-3.374 8.422-3.943 2.35-6.106 3.106-10.688 2.563-4.101-1.935-5.164-3.602-7.312-7.563-.501-3.497-.501-3.497-.502-7.395l-.016-2.165c-.013-2.346.004-4.691.022-7.038 0-1.638-.002-3.277-.005-4.915 0-3.427.012-6.854.034-10.281.029-4.387.026-8.774.013-13.161-.007-3.381.001-6.762.014-10.143.004-1.617.004-3.235 0-4.852-.002-2.262.014-4.523.036-6.785l.016-3.895c.512-4.444 2.071-7.006 5.138-10.183 3.252-1.716 5.625-1.569 9.25-1.187ZM303 194c2.753 1.223 4.428 2.153 6.12 4.656 1.224 3.261 1.142 6.122 1.155 9.604l.015 2.194c.014 2.389.013 4.778.01 7.167l.014 4.992c.007 3.486.007 6.972.002 10.458-.006 4.463.01 8.926.034 13.39.015 3.435.016 6.87.013 10.307 0 1.645.005 3.29.015 4.936.013 2.303.006 4.604-.006 6.907l.002 3.967c-.401 3.673-1.12 5.526-3.374 8.422-3.943 2.35-6.106 3.106-10.688 2.563-4.101-1.935-5.164-3.602-7.312-7.563-.501-3.497-.501-3.497-.502-7.395l-.016-2.165c-.013-2.346.004-4.691.022-7.038 0-1.638-.002-3.277-.005-4.915 0-3.427.012-6.854.034-10.281.029-4.387.026-8.774.013-13.161-.007-3.381.001-6.762.014-10.143.004-1.617.004-3.235 0-4.852-.002-2.262.014-4.523.036-6.785l.016-3.895c.512-4.444 2.071-7.006 5.138-10.183 3.252-1.716 5.625-1.569 9.25-1.187ZM239 194c2.753 1.223 4.428 2.153 6.12 4.656 1.224 3.261 1.142 6.122 1.155 9.604l.015 2.194c.014 2.389.013 4.778.01 7.167l.014 4.992c.007 3.486.007 6.972.002 10.458-.006 4.463.01 8.926.034 13.39.015 3.435.016 6.87.013 10.307 0 1.645.005 3.29.015 4.936.013 2.303.006 4.604-.006 6.907l.002 3.967c-.401 3.673-1.12 5.526-3.374 8.422-3.943 2.35-6.106 3.106-10.688 2.563-4.101-1.935-5.164-3.602-7.312-7.563-.501-3.497-.501-3.497-.502-7.395l-.016-2.165c-.013-2.346.004-4.691.022-7.038 0-1.638-.002-3.277-.005-4.915 0-3.427.012-6.854.034-10.281.029-4.387.026-8.774.013-13.161-.007-3.381.001-6.762.014-10.143.004-1.617.004-3.235 0-4.852-.002-2.262.014-4.523.036-6.785l.016-3.895c.512-4.444 2.071-7.006 5.138-10.183 3.252-1.716 5.625-1.569 9.25-1.187Z"/></svg>