<?xml version="1.0" standalone="no"?>
<!DOCTYPE svg PUBLIC "-//W3C//DTD SVG 20010904//EN"
 "http://www.w3.org/TR/2001/REC-SVG-20010904/DTD/svg10.dtd">
<svg version="1.0" xmlns="http://www.w3.org/2000/svg"
 width="512.000000pt" height="512.000000pt" viewBox="0 0 512.000000 512.000000"
 preserveAspectRatio="xMidYMid meet">

<g transform="translate(0.000000,512.000000) scale(0.100000,-0.100000)"
fill="#000000" stroke="none">
<path d="M2389 4681 c-87 -16 -202 -52 -273 -85 -478 -220 -726 -760 -580
-1262 105 -364 391 -642 762 -741 86 -23 116 -26 262 -26 146 0 176 3 262 26
371 99 657 376 762 741 147 506 -112 1059 -595 1267 -147 64 -224 80 -399 84
-85 2 -176 0 -201 -4z"/>
<path d="M2430 2344 c-802 -59 -1470 -530 -1704 -1202 -65 -188 -105 -480 -76
-566 16 -48 63 -102 111 -127 37 -19 75 -19 1796 -19 1679 0 1760 1 1798 19
49 22 99 77 115 127 16 46 8 209 -15 334 -136 730 -780 1301 -1597 1415 -111
15 -339 25 -428 19z"/>
</g>
</svg>
